<svg width="138" height="90" viewBox="0 0 138 90" fill="none" xmlns="http://www.w3.org/2000/svg">
<ellipse cx="6.5" cy="6.5" rx="6.5" ry="6.5" transform="matrix(-1 -8.74228e-08 -8.74228e-08 1 113 2)" fill="#FFE345"/>
<rect y="20" width="13" height="70" rx="6.5" fill="url(#paint0_linear_1398_6393)"/>
<rect x="50" y="20" width="13" height="70" rx="6.5" fill="url(#paint1_linear_1398_6393)"/>
<rect x="100" y="20" width="13" height="70" rx="6.5" fill="url(#paint2_linear_1398_6393)"/>
<rect x="38" y="90" width="13" height="70" rx="6.5" transform="rotate(180 38 90)" fill="url(#paint3_linear_1398_6393)"/>
<rect x="88" y="90" width="13" height="70" rx="6.5" transform="rotate(180 88 90)" fill="url(#paint4_linear_1398_6393)"/>
<rect x="138" y="90" width="13" height="70" rx="6.5" transform="rotate(180 138 90)" fill="url(#paint5_linear_1398_6393)"/>
<defs>
<linearGradient id="paint0_linear_1398_6393" x1="6.5" y1="20" x2="6.5" y2="90" gradientUnits="userSpaceOnUse">
<stop stop-color="#00C0E8"/>
<stop offset="1" stop-color="#006F98"/>
</linearGradient>
<linearGradient id="paint1_linear_1398_6393" x1="56.5" y1="20" x2="56.5" y2="90" gradientUnits="userSpaceOnUse">
<stop stop-color="#00C0E8"/>
<stop offset="1" stop-color="#006F98"/>
</linearGradient>
<linearGradient id="paint2_linear_1398_6393" x1="106.5" y1="20" x2="106.5" y2="90" gradientUnits="userSpaceOnUse">
<stop stop-color="#00C0E8"/>
<stop offset="1" stop-color="#006F98"/>
</linearGradient>
<linearGradient id="paint3_linear_1398_6393" x1="44.5" y1="90" x2="44.5" y2="160" gradientUnits="userSpaceOnUse">
<stop stop-color="#00C0E8"/>
<stop offset="1" stop-color="#006F98"/>
</linearGradient>
<linearGradient id="paint4_linear_1398_6393" x1="94.5" y1="90" x2="94.5" y2="160" gradientUnits="userSpaceOnUse">
<stop stop-color="#00C0E8"/>
<stop offset="1" stop-color="#006F98"/>
</linearGradient>
<linearGradient id="paint5_linear_1398_6393" x1="144.5" y1="90" x2="144.5" y2="160" gradientUnits="userSpaceOnUse">
<stop stop-color="#00C0E8"/>
<stop offset="1" stop-color="#006F98"/>
</linearGradient>
</defs>
</svg>
