<svg width="148" height="153" viewBox="0 0 148 153" fill="none" xmlns="http://www.w3.org/2000/svg">
<g filter="url(#filter0_i_1442_7214)">
<circle cx="73.6617" cy="73.6617" r="73.6617" transform="matrix(-1 -8.74228e-08 -8.74228e-08 1 147.324 4.76758)" fill="url(#paint0_linear_1442_7214)"/>
</g>
<circle cx="7.51922" cy="7.51922" r="5.75005" transform="matrix(-1 -8.74228e-08 -8.74228e-08 1 81.3027 74.627)" stroke="white" stroke-width="3.53833"/>
<line x1="75.102" y1="2.82613" x2="62.5677" y2="26.502" stroke="#00C0E8" stroke-width="4.18167" stroke-linecap="round"/>
<line x1="74.294" y1="2.609" x2="48.6656" y2="10.4087" stroke="#00C0E8" stroke-width="4.18167" stroke-linecap="round"/>
<line x1="74.4285" y1="2.94447" x2="53.831" y2="20.0733" stroke="#00C0E8" stroke-width="4.18167" stroke-linecap="round"/>
<line x1="75.5186" y1="2.8965" x2="75.5186" y2="29.6855" stroke="url(#paint1_linear_1442_7214)" stroke-width="4.18167" stroke-linecap="round"/>
<line x1="2.09083" y1="-2.09083" x2="28.8799" y2="-2.09083" transform="matrix(0.467888 0.883788 0.883788 -0.467888 76.6484 0)" stroke="url(#paint2_linear_1442_7214)" stroke-width="4.18167" stroke-linecap="round"/>
<line x1="2.09083" y1="-2.09083" x2="28.8799" y2="-2.09083" transform="matrix(0.768878 0.639396 0.639396 -0.768878 75.8438 0)" stroke="url(#paint3_linear_1442_7214)" stroke-width="4.18167" stroke-linecap="round"/>
<line x1="2.09083" y1="-2.09083" x2="28.8799" y2="-2.09083" transform="matrix(0.956677 0.291153 0.291153 -0.956677 75.0391 0)" stroke="url(#paint4_linear_1442_7214)" stroke-width="4.18167" stroke-linecap="round"/>
<line x1="49.144" y1="57.3101" x2="58.5" y2="67.0729" stroke="white" stroke-width="3.53833" stroke-linecap="round"/>
<line x1="1.76917" y1="-1.76917" x2="15.2913" y2="-1.76917" transform="matrix(-0.691904 0.721989 0.721989 0.691904 60.6973 57.2568)" stroke="white" stroke-width="3.53833" stroke-linecap="round"/>
<line x1="88.3862" y1="57.3101" x2="97.7422" y2="67.0729" stroke="white" stroke-width="3.53833" stroke-linecap="round"/>
<line x1="1.76917" y1="-1.76917" x2="15.2913" y2="-1.76917" transform="matrix(-0.691904 0.721989 0.721989 0.691904 99.9414 57.2568)" stroke="white" stroke-width="3.53833" stroke-linecap="round"/>
<defs>
<filter id="filter0_i_1442_7214" x="0" y="4.76758" width="147.324" height="147.323" filterUnits="userSpaceOnUse" color-interpolation-filters="sRGB">
<feFlood flood-opacity="0" result="BackgroundImageFix"/>
<feBlend mode="normal" in="SourceGraphic" in2="BackgroundImageFix" result="shape"/>
<feColorMatrix in="SourceAlpha" type="matrix" values="0 0 0 0 0 0 0 0 0 0 0 0 0 0 0 0 0 0 127 0" result="hardAlpha"/>
<feOffset/>
<feGaussianBlur stdDeviation="16.0833"/>
<feComposite in2="hardAlpha" operator="arithmetic" k2="-1" k3="1"/>
<feColorMatrix type="matrix" values="0 0 0 0 1 0 0 0 0 1 0 0 0 0 1 0 0 0 0.5 0"/>
<feBlend mode="normal" in2="shape" result="effect1_innerShadow_1442_7214"/>
</filter>
<linearGradient id="paint0_linear_1442_7214" x1="75.4977" y1="100.645" x2="36.4956" y2="33.0911" gradientUnits="userSpaceOnUse">
<stop stop-color="#C3A4FF"/>
<stop offset="0.95" stop-color="#FFE345"/>
</linearGradient>
<linearGradient id="paint1_linear_1442_7214" x1="72.9277" y1="31.7764" x2="72.9277" y2="0.805664" gradientUnits="userSpaceOnUse">
<stop stop-color="#00C0E8"/>
<stop offset="1" stop-color="#006F98"/>
</linearGradient>
<linearGradient id="paint2_linear_1442_7214" x1="30.9707" y1="0.5" x2="0" y2="0.5" gradientUnits="userSpaceOnUse">
<stop stop-color="#00C0E8"/>
<stop offset="1" stop-color="#006F98"/>
</linearGradient>
<linearGradient id="paint3_linear_1442_7214" x1="30.9707" y1="0.5" x2="0" y2="0.5" gradientUnits="userSpaceOnUse">
<stop stop-color="#00C0E8"/>
<stop offset="1" stop-color="#006F98"/>
</linearGradient>
<linearGradient id="paint4_linear_1442_7214" x1="30.9707" y1="0.5" x2="0" y2="0.5" gradientUnits="userSpaceOnUse">
<stop stop-color="#00C0E8"/>
<stop offset="1" stop-color="#006F98"/>
</linearGradient>
</defs>
</svg>
